<svg width="768" height="270" viewBox="0 0 768 270" fill="none" xmlns="http://www.w3.org/2000/svg">
<path d="M203.24 218.889C201.11 217.999 200.26 216.399 200.62 213.959C200.93 211.429 203.78 203.919 211.06 186.049C214.26 178.229 216.88 171.779 216.88 171.689C216.88 171.159 214.35 171.729 213.32 172.449C211.5 173.739 207.41 175.559 204.74 176.269C198.7 177.869 193.76 175.999 191.32 171.199C190.16 168.839 189.32 164.129 189.32 159.689C189.32 155.869 189.28 155.559 188.43 155.559C187.14 155.559 181.1 161.069 176.12 166.759C173.76 169.429 171.36 171.829 170.79 172.049C170.21 172.269 168.83 172.449 167.81 172.449C165.41 172.449 163.68 171.209 163.32 169.159C163.05 167.919 163.76 161.869 164.7 156.579C164.97 155.249 164.88 155.109 163.94 155.109C162.47 155.109 158.56 158.799 150.3 167.999C146.43 172.269 142.61 176.219 141.81 176.759C139.63 178.229 135.9 178.179 134.43 176.669C133.01 175.289 133.01 173.689 134.39 169.249L135.46 165.779H134.35C133.59 165.779 132.26 166.539 130.71 167.909C126.27 171.729 119.64 175.999 118.13 175.999C117.91 175.999 116.93 176.399 115.86 176.839C111.37 178.839 101.68 179.199 97.15 177.459C94.35 176.439 91.02 173.419 89.68 170.749C88.84 169.019 88.66 167.989 88.7 164.879C88.83 155.059 95.86 144.479 105.46 139.769C110.26 137.409 114.3 136.439 119.59 136.439C125.32 136.439 128.39 137.769 130.08 141.059C132.35 145.459 127.15 154.039 119.19 158.929C117.32 160.089 115.46 161.289 115.1 161.549C114.21 162.259 105.1 165.589 103.01 165.989C102.12 166.169 101.01 166.569 100.57 166.919C99.81 167.499 99.81 167.589 100.79 168.429C104.03 171.189 111.72 170.609 118.79 167.049C127.01 162.919 135.68 153.939 142.12 142.829C143.19 140.959 144.39 139.499 145.1 139.189C148.52 137.629 152.43 139.459 152.43 142.609C152.43 144.389 151.14 148.519 149.1 153.319C148.43 154.919 147.59 156.919 147.19 157.759C146.7 158.919 148.52 157.319 154.48 151.229C163.5 142.069 165.81 140.429 169.68 140.429C171.81 140.429 172.26 140.609 173.55 141.899C175.33 143.679 175.82 146.429 175.15 150.659C174.22 156.439 174.13 156.389 179.02 151.729C181.38 149.419 184.71 146.569 186.35 145.419C189.19 143.509 189.64 143.329 192.62 143.199C195.55 143.019 195.95 143.109 197.24 144.219C199.33 145.949 199.6 147.729 199.28 156.089C199.01 162.359 199.06 163.559 199.72 164.759C200.61 166.539 201.63 167.119 203.99 167.119C206.26 167.119 208.08 166.359 211.55 164.009C218.17 159.519 224.66 151.429 227.99 143.479C230.12 138.549 231.63 136.899 234.17 136.899C236.17 136.899 237.99 138.139 238.39 139.739L238.66 140.849L242.13 139.069C245.95 137.109 248.84 136.449 253.55 136.449C261.68 136.449 266.88 140.539 267.42 147.339C267.91 153.379 265.29 159.469 259.64 165.429C257.6 167.559 256.17 169.339 256.48 169.339C257.9 169.299 263.46 166.539 267.46 163.869C274.22 159.339 276.57 156.979 278.66 152.759C282.66 144.579 289.24 139.029 296.79 137.379C302.39 136.179 309.28 137.289 312.35 139.869C313.15 140.539 314.44 142.399 315.24 143.999C316.44 146.399 316.93 146.929 318.17 147.289C320.48 147.959 325.01 146.979 329.1 144.929C334.26 142.349 335.68 140.889 336.88 136.889C338.21 132.359 339.41 131.109 342.52 131.109C344.52 131.109 345.1 131.289 346.08 132.269C347.01 133.249 347.19 133.689 346.97 135.249C346.88 136.269 346.61 137.469 346.44 137.919C345.6 139.959 353.91 140.759 359.2 139.119C363.29 137.829 365.11 137.959 366.71 139.519C369.07 141.919 368.18 144.139 363.33 147.789C359.29 150.809 356.53 153.919 354.57 157.519C353.41 159.739 353.15 160.719 353.1 162.989C353.1 165.429 353.23 165.919 354.34 166.989C355.41 168.099 355.9 168.229 358.34 168.229C360.78 168.229 361.67 167.959 364.92 166.359C366.96 165.339 370.03 163.429 371.72 162.139C374.21 160.269 374.96 159.379 375.85 157.379C378.52 151.069 379.81 149.069 383.09 145.739C386.82 141.959 390.65 139.609 395.89 137.869C398.91 136.849 400.02 136.709 405.76 136.709C409.72 136.709 412.96 136.929 414.2 137.289C417.84 138.309 422.73 140.929 424.69 142.929C426.42 144.619 426.65 145.109 426.65 146.839C426.65 148.479 426.43 148.969 425.23 149.999C423.19 151.729 421.32 151.379 417.63 148.529C412.61 144.709 406.56 143.199 401.27 144.439C393.31 146.349 386.11 154.259 385.49 161.859C385.05 167.099 387.49 169.499 393.09 169.239C398.78 168.969 404.82 164.799 408.47 158.619C409.45 156.929 410.6 155.379 411.09 155.109C412.29 154.439 415.4 154.579 416.82 155.329C418.46 156.169 419.04 157.819 418.95 161.329C418.91 164.749 419.75 166.749 421.84 167.819C423.97 168.929 428.15 169.109 431.53 168.219C435.49 167.199 443.04 163.199 447.8 159.639L451.76 156.659L452.34 151.769C453.45 142.079 456.61 131.949 461.58 122.039C465.14 115.019 467.49 111.239 471.94 105.819C479.45 96.4891 487.01 92.4391 495.9 92.9791C498.57 93.1591 499.5 93.4191 501.01 94.4891C507.5 99.0191 505.77 109.289 495.81 125.019C488.48 136.619 475.77 150.489 465.68 157.909C462.88 159.949 462.66 160.219 462.66 161.779C462.66 165.869 465.19 170.139 468.75 171.819C470.84 172.839 471.51 172.979 474.35 172.799C480.08 172.399 484.57 169.559 488.48 163.689C489.81 161.689 491.19 160.219 491.9 159.959C493.77 159.199 496.52 159.779 497.63 161.119C499.99 163.829 498.21 167.559 491.41 174.099C486.97 178.319 486.52 178.629 483.01 179.789C478.57 181.259 472.3 181.749 468.48 180.899C462.04 179.479 456.7 175.119 454.39 169.389C453.68 167.659 452.88 166.229 452.61 166.229C452.34 166.229 451.63 166.589 451.05 167.029C448.74 168.809 443.85 172.099 443.18 172.319C442.74 172.449 442.11 172.809 441.76 173.119C440.87 173.829 437.4 174.989 432.87 176.049C429.94 176.759 428.07 176.939 424.51 176.809C420.42 176.629 419.67 176.449 416.95 175.079C414.64 173.919 413.66 173.079 412.64 171.479C411.93 170.319 411 169.389 410.64 169.389C410.28 169.389 408.82 170.319 407.4 171.519C402.91 175.249 396.51 177.789 391.62 177.789C385.22 177.789 379.44 174.989 377.26 170.899C376.68 169.789 375.97 168.899 375.75 168.899C375.48 168.899 374.06 169.919 372.64 171.119C367.75 175.249 361.8 177.209 355.4 176.759C350.47 176.449 347.8 175.429 345.31 172.939C343 170.579 342.2 168.449 342.2 164.629C342.2 159.559 344.42 154.229 348.42 149.429L350.73 146.669H349.09C348.16 146.669 346.16 146.449 344.56 146.139L341.72 145.609L340.08 147.169C339.19 148.059 337.86 149.129 337.15 149.609C336.44 150.049 335.33 150.809 334.71 151.209C334.09 151.649 333.24 152.099 332.89 152.279C332.53 152.409 331.51 152.809 330.67 153.169C328 154.189 323.47 155.209 320.18 155.439L317.02 155.709L316.49 157.749C314.53 165.129 308.13 172.459 301.11 175.389C298.27 176.549 297.51 176.679 292.89 176.679C288.53 176.679 287.47 176.499 285.6 175.659C282.58 174.279 279.78 171.879 278.4 169.529C277.78 168.459 276.93 167.569 276.58 167.569C276.18 167.569 274.58 168.549 272.94 169.699C264.67 175.699 253.3 179.079 243.12 178.499C235.3 178.099 230.36 175.969 229.52 172.679C228.81 169.749 231.3 168.099 236.45 168.009C242.09 167.969 247.47 165.479 251.74 160.849C259.74 152.179 258.85 143.829 249.96 144.579C246.23 144.849 242.76 146.539 239.52 149.649C234.85 154.049 231.56 160.269 225.65 175.779C224.05 179.959 221.12 187.419 219.12 192.449C217.12 197.469 214.28 204.719 212.85 208.579C209.83 216.799 209.16 217.999 207.29 218.889C205.56 219.689 205.07 219.689 203.25 218.889H203.24ZM298.53 167.109C301.86 165.469 304.57 162.579 306.22 158.979C308.44 154.179 308.44 154.049 305.73 153.069C302.44 151.869 299.64 149.289 299.29 147.069C299.02 145.469 298.89 145.339 297.56 145.339C294.76 145.339 290.85 149.209 288.45 154.359C283.78 164.319 289.56 171.599 298.54 167.119L298.53 167.109ZM104.8 159.109C114.27 155.289 122.4 148.219 120.58 145.379C120.22 144.849 119.42 144.669 117.29 144.709C111.47 144.749 104.62 149.949 101.47 156.749C100.67 158.479 100 160.039 100 160.169C100 160.749 101.56 160.389 104.8 159.099V159.109ZM469.6 142.799C479.2 133.329 486.4 124.039 490.62 115.689C494 108.979 495.33 102.709 493.69 101.069C491.96 99.3391 487.2 101.999 482.76 107.249C475.78 115.379 467.78 131.029 464.23 143.339C463.61 145.559 462.99 147.699 462.85 148.139C462.72 148.539 462.81 148.899 462.98 148.899C463.2 148.899 466.18 146.139 469.6 142.809V142.799Z" fill="white"/>
<path d="M62.8899 182.22C62.3999 182.04 61.5099 181.33 60.8899 180.66C59.9099 179.59 59.7799 179.1 59.8199 176.08C59.9499 169.28 68.1799 135.64 74.5299 115.77C82.9699 89.3695 94.3499 67.8095 106.53 55.0595L109.91 51.5495H108.4C107.56 51.5495 105.2 51.8595 103.11 52.2195C91.9999 54.1795 84.0899 54.7495 72.4399 54.4895C53.5499 54.0895 40.3999 51.8695 27.1099 46.7095C18.4899 43.3795 15.3799 40.6695 15.3799 36.4395C15.3799 32.2595 18.1399 29.7695 22.7999 29.7695C24.9799 29.7695 26.3599 30.2095 32.0399 32.6595C49.1499 40.0795 66.7499 43.0995 89.1099 42.5295C100.67 42.2195 111.95 40.7995 130.13 37.3295C150.09 33.5095 170.84 32.3495 183.11 34.4395C188.4 35.3295 190.8 36.4395 191.73 38.3995C192.62 40.3095 192.62 41.2895 191.73 43.5595C190.17 47.4295 187.77 47.8695 178.44 45.9195C172.97 44.7595 172.04 44.7195 161.11 44.7195C151.02 44.7595 149.07 44.8495 145.78 45.6495C143.69 46.1795 140.71 46.8895 139.11 47.2495C131.2 49.1195 123.64 53.6095 116.62 60.6295C106.98 70.3595 99.6399 83.0295 92.2199 102.9C86.3099 118.77 77.6399 148.77 73.8199 166.54C72.8399 171.21 71.9999 175.3 71.9999 175.65C71.9999 177.21 70.9299 179.74 69.6899 181.12C68.4899 182.54 68.1299 182.68 66.0499 182.63C64.8099 182.63 63.3799 182.45 62.8899 182.23V182.22Z" fill="white"/>
<path d="M729.87 178.179C726.85 177.649 725.11 176.799 722.76 174.539C719.83 171.649 719.03 169.029 718.76 161.469C718.58 155.559 718.49 155.109 717.74 155.109C716.67 155.109 712.5 158.929 705.87 166.039C703.07 169.059 700.09 171.819 699.29 172.219C697.56 173.019 695.47 172.799 693.42 171.549C691.42 170.349 691.29 168.709 692.62 162.259C693.24 159.239 693.78 156.569 693.78 156.389C693.78 156.169 693.34 155.989 692.8 155.989C691.42 155.989 686.22 161.099 680.31 168.209C677.69 171.409 674.89 174.429 674.09 175.009C672.09 176.429 669.38 176.339 667.56 174.789C666.18 173.629 666.14 173.499 666.36 170.919C666.49 169.409 667.6 164.699 668.85 160.429C670.09 156.159 671.12 152.469 671.12 152.249C671.12 151.849 668.28 152.119 665.83 152.739C664.5 153.049 664.27 153.359 663.74 155.409C661.43 164.479 655.3 172.029 647.74 175.189C644.54 176.519 643.78 176.609 639.56 176.659C635.34 176.659 634.63 176.529 632.09 175.369C628.71 173.809 626.13 171.099 625.02 167.859C623.95 164.789 624.04 159.019 625.24 154.929L626.13 151.859L623.69 152.129C622.36 152.259 621.02 152.619 620.71 152.839C620.4 153.109 620 154.399 619.87 155.679C618.85 164.119 612.85 171.859 604.45 175.589C602.32 176.519 601.38 176.659 596.67 176.659C592.14 176.659 591.03 176.479 589.25 175.679C586.54 174.439 583.29 171.409 582.14 169.099C581.65 168.119 581.16 167.229 581.07 167.139C581.03 167.049 580.05 167.719 578.98 168.609C575.6 171.369 569.78 174.609 566.05 175.849C561.34 177.359 554.54 177.449 550.54 176.029C547.3 174.919 544.1 172.559 542.45 170.209C541.78 169.229 540.94 168.429 540.54 168.429C540.18 168.429 538.76 169.099 537.38 169.939C533.38 172.379 528.54 174.559 525.96 175.099C521.83 175.939 519.12 174.429 519.12 171.279C519.12 168.879 520.85 167.319 525.03 165.989C529.34 164.569 536.94 160.699 538.76 159.059C539.74 158.129 540 157.459 540 156.079C540 151.459 542.71 140.169 545.6 132.789C548.04 126.569 552.53 117.629 555.6 112.879C561.56 103.639 567.2 97.809 572.71 95.059C575.07 93.899 576.04 93.679 580.27 93.459C584.63 93.239 585.34 93.279 586.94 94.129C590.94 96.169 592.76 99.769 592.32 104.709C591.03 118.529 571.08 145.909 553.16 158.399C550.27 160.439 550.05 161.289 551.69 164.439C552.93 166.969 554.93 168.309 558.05 168.709C560.09 168.929 561.16 168.799 564.27 167.779C571.25 165.509 579.87 158.799 581.47 154.399C582.76 150.839 585.56 146.489 588.45 143.639C593.07 139.109 598.45 136.879 604.98 136.879C610.85 136.879 614.98 138.839 617.78 142.879C619.07 144.749 619.29 144.879 621.07 144.879C623.38 144.879 625.07 144.299 630.89 141.549C638 138.169 641.25 137.279 647.16 137.019C655.2 136.659 659.52 138.399 662.14 143.109C663.25 145.199 663.43 145.329 665.12 145.329C666.9 145.329 668.76 144.439 673.61 141.369C677.48 138.929 681.08 139.099 682.45 141.809C683.38 143.589 683.29 144.609 681.56 150.609C680.72 153.539 680 156.029 680 156.119C680 156.249 682.44 153.849 685.47 150.879C692.18 144.169 694.58 142.659 698.71 142.659C701.55 142.659 701.73 142.749 703.07 144.219C704.31 145.639 704.45 146.089 704.45 148.579C704.41 150.089 704.14 152.579 703.83 154.139C703.52 155.649 703.3 156.899 703.34 156.899C703.43 156.899 705.34 155.029 707.65 152.769C715.69 144.769 721.69 142.009 725.65 144.459C728.41 146.099 728.67 147.219 728.67 156.899C728.67 164.369 728.76 165.789 729.47 166.989C731.03 169.879 734.18 170.859 737.69 169.569C739.2 168.989 740.76 167.789 743.38 165.079C746.76 161.569 747.07 161.349 748.85 161.349C750.23 161.349 750.98 161.619 751.78 162.459C755.78 166.419 747.51 175.479 737.56 178.019C734.67 178.729 733.43 178.779 729.87 178.199V178.179ZM645.87 167.289C650.14 165.109 654.45 159.419 655.56 154.449C655.92 152.849 655.87 152.809 654.32 152.139C652.23 151.299 649.96 149.159 648.85 147.029C648.05 145.519 647.83 145.339 646.18 145.339C642.36 145.339 637.74 149.029 635.29 154.099C633.87 156.939 633.33 162.059 634.18 164.539C635.56 168.719 640.67 169.919 645.87 167.299V167.289ZM602.14 167.289C603.43 166.669 605.34 165.249 606.45 164.179C608.67 161.959 611.38 156.709 611.83 153.909L612.1 152.089L609.97 151.109C607.35 149.999 605.57 148.349 604.41 146.129C603.43 144.169 602.5 144.039 599.79 145.289C597.43 146.359 593.57 150.529 592.23 153.469C589.3 159.829 590.05 166.089 593.92 167.779C596.23 168.799 599.52 168.619 602.14 167.289ZM560.27 140.799C565.47 135.469 569.69 130.309 573.2 124.979C581.87 111.909 584.53 100.309 578.62 101.509C576.84 101.869 573.24 104.619 571.02 107.239C564.44 115.109 556.75 130.479 552.49 144.219C551.73 146.619 551.11 148.799 551.11 149.019C551.11 149.549 556.31 144.889 560.27 140.799Z" fill="white"/>
</svg>
